<?xml version="1.0" encoding="utf-8"?>
<svg version="1.1" xmlns="http://www.w3.org/2000/svg" viewBox="0 0 512 512">
    <g>
        <circle fill="#606060" cx="53.337" cy="140.889" r="43.653"/>
        <polygon fill="#F0EFEF" points="512,192.862 512,422.467 470.122,464.345 51.505,464.345 9.707,422.467 9.707,192.862"/>
        <g>
            <polygon fill="#F5EFBB" points="111.528,144.713 87.261,192.881 155.473,192.881 179.74,144.713"/>
            <polygon fill="#3F3F3F" points="453.572,192.881 511.945,192.881 511.945,144.713 477.839,144.713"/>
            <polygon fill="#6EB9D2" points="233.632,144.713 209.365,192.881 277.577,192.881 301.844,144.713"/>
            <polygon fill="#FAFAFB" points="355.735,144.713 331.469,192.881 399.68,192.881 423.947,144.713"/>
            <polygon fill="#3F3F3F" points="57.602,144.726 38.829,182.031 33.374,192.862 8.665,192.862 8.665,144.726"/>
            <polygon fill="#648A7B" points="423.947,144.713 399.68,192.881 453.572,192.881 477.839,144.713"/>
            <polygon fill="#C15670" points="301.844,144.713 277.577,192.881 331.469,192.881 355.735,144.713"/>
            <polygon fill="#69865C" points="179.74,144.713 155.473,192.881 209.365,192.881 233.632,144.713"/>
            <polygon fill="#648A7B" points="57.636,144.713 33.369,192.881 87.261,192.881 111.528,144.713"/>
        </g>
        <g>
            <polygon fill="#FAFAFB" points="416.371,64.581 349.382,77.738 316.33,35.138 383.238,21.982"/>
            <polygon fill="#3F3F3F" points="56.96,135.34 9.868,144.646 9.306,144.726 0,97.473 23.827,92.74 27.838,91.938 34.337,101.645"/>
            <polygon fill="#6EB9D2" points="296.514,88.168 256,96.11 229.606,101.324 196.472,58.805 256,47.011 263.461,45.568"/>
            <polygon fill="#F5EFBB" points="176.737,111.754 109.829,124.911 76.696,82.391 143.604,69.154"/>
            <polygon fill="#3F3F3F" points="504.138,47.252 469.4,54.152 468.678,53.43 425.998,13.558 436.106,11.552 489.296,1.042 494.832,0 496.436,8.182"/>
            <polygon fill="#648A7B" points="109.829,124.911 94.987,127.879 56.96,135.34 31.77,103.008 23.827,92.74 27.838,91.938 76.696,82.391"/>
            <polygon fill="#69865C" points="229.606,101.324 176.737,111.754 143.604,69.154 196.472,58.805"/>
            <polygon fill="#C15670" points="349.382,77.738 296.514,88.168 263.461,45.568 316.33,35.138"/>
            <polygon fill="#648A7B" points="469.24,54.152 416.371,64.581 383.238,21.982 425.998,13.558 436.106,11.552 468.678,53.43 468.839,53.59"/>
        </g>
        <circle fill="#F0E1B7" cx="23.882" cy="117.874" r="6.125"/>
        <circle fill="#F0E1B7" cx="23.882" cy="169.717" r="6.125"/>
        <rect x="83.144" y="235.66" fill="#454444" width="355.384" height="71.782"/>
    </g>
</svg>
